<?xml version="1.0" encoding="iso-8859-1"?>
<!-- Uploaded to: SVG Repo, www.svgrepo.com, Generator: SVG Repo Mixer Tools -->
<svg fill="#0471A6" height="800px" width="800px" version="1.1" id="Capa_1" xmlns="http://www.w3.org/2000/svg" xmlns:xlink="http://www.w3.org/1999/xlink" 
	 viewBox="0 0 490.053 490.053" xml:space="preserve">
<path id="XMLID_10_" d="M438.356,187.15l-0.338-0.087l-59.151-12.378c-8.65-14.617-20.071-28.098-34.03-39.967
	c1.103-14.092-0.198-28.188-3.903-42.017c-8.642-32.25-29.326-59.205-58.241-75.899s-62.599-21.13-94.853-12.488l-14.488,3.883
	l22.253,83.051c-10.391,1.12-20.576,3.008-30.469,5.627c-0.782-1.521-1.596-3.025-2.45-4.504
	C133.832,42.393,69.701,25.208,19.724,54.063l-12.99,7.5l58.64,101.566c-14.604,20.149-23.581,42.922-26.226,66.897H8.319v30h30.829
	c2.644,23.976,11.621,46.749,26.226,66.897L6.734,428.491l12.99,7.5c16.441,9.492,34.407,14.002,52.152,14.001
	c36.194-0.003,71.448-18.772,90.81-52.308c0.854-1.479,1.668-2.982,2.45-4.504c9.893,2.619,20.078,4.507,30.469,5.627
	l-22.253,83.051l14.488,3.883c10.77,2.886,21.698,4.313,32.556,4.313c21.659,0,43.037-5.681,62.297-16.801
	c28.915-16.694,49.6-43.649,58.241-75.899c3.705-13.829,5.006-27.924,3.903-42.017c13.798-11.733,25.111-25.043,33.724-39.466
	l59.116-12.371l0.679-0.158c26.474-6.837,44.963-30.727,44.963-58.096S464.83,193.987,438.356,187.15z M105.615,327.417
	l52.704-30.43l45,25.981v46.435C164.515,366.178,130.023,350.575,105.615,327.417z M203.319,120.65v46.435l-45,25.981
	l-52.705-30.429C130.023,139.478,164.515,123.875,203.319,120.65z M278.319,193.066l-45-25.981V120.65
	c38.804,3.226,73.296,18.829,97.704,41.987L278.319,193.066z M218.319,296.989l-45-25.981v-51.961l45-25.981l45,25.981v51.961
	L218.319,296.989z M86.116,186.02l57.203,33.026v51.961l-57.203,33.027c-11.349-17.586-17.797-37.68-17.797-59.007
	S74.768,203.606,86.116,186.02z M233.319,322.969l45-25.981l52.704,30.43c-24.408,23.158-58.9,38.761-97.704,41.986V322.969z
	 M293.319,271.007v-51.961l57.203-33.026c11.349,17.586,17.797,37.68,17.797,59.007s-6.449,41.421-17.797,59.007L293.319,271.007z
	 M267.693,42.782c21.976,12.688,37.695,33.174,44.263,57.685c1.197,4.465,2.058,8.966,2.596,13.486
	c-26.299-14.359-56.515-22.573-88.173-23.767l-15.982-59.647C230.21,28.444,250.11,32.63,267.693,42.782z M91.375,72.585
	c19.086,5.114,35.058,17.297,45.048,34.32c-16.188,7.126-31.185,16.407-44.48,27.688c-1.901,1.613-3.747,3.262-5.554,4.933
	L48.464,73.841C62.223,69.229,77.039,68.745,91.375,72.585z M91.375,417.468c-14.339,3.842-29.151,3.355-42.911-1.256l37.924-65.686
	c1.807,1.671,3.653,3.32,5.554,4.933c13.295,11.281,28.292,20.563,44.48,27.688C126.432,400.171,110.461,412.354,91.375,417.468z
	 M267.693,447.272c-17.582,10.151-37.48,14.345-57.296,12.242l15.982-59.646c31.658-1.194,61.874-9.408,88.173-23.767
	c-0.539,4.52-1.4,9.021-2.596,13.486C305.388,414.098,289.669,434.584,267.693,447.272z M431.157,274.214l-38,7.952
	c3.401-12.003,5.162-24.448,5.162-37.14c0-12.528-1.718-24.816-5.033-36.675l37.872,7.925c13.064,3.519,22.161,15.386,22.161,28.969
	C453.319,258.828,444.222,270.696,431.157,274.214z"/>
</svg>