<?xml version="1.0" encoding="UTF-8"?><svg id="a" xmlns="http://www.w3.org/2000/svg" viewBox="0 0 192 192"><rect width="192" height="192" style="fill:#10abf9;"/><path d="M156.18,78.98l-.1-.03-17.46-3.65c-2.55-4.32-5.93-8.29-10.05-11.8,.33-4.16-.06-8.32-1.15-12.4-2.55-9.52-8.66-17.48-17.19-22.41s-18.48-6.24-28-3.69l-4.28,1.15,6.57,24.52c-3.07,.33-6.07,.89-8.99,1.66-.23-.45-.47-.89-.72-1.33-8.52-14.75-27.45-19.83-42.2-11.31l-3.83,2.21,17.31,29.98c-4.31,5.95-6.96,12.67-7.74,19.75h-9.1v8.86h9.1c.78,7.08,3.43,13.8,7.74,19.75l-17.31,29.98,3.83,2.21c4.85,2.8,10.16,4.13,15.4,4.13,10.68,0,21.09-5.54,26.81-15.44,.25-.44,.49-.88,.72-1.33,2.92,.77,5.93,1.33,8.99,1.66l-6.57,24.52,4.28,1.15c3.18,.85,6.41,1.27,9.61,1.27,6.39,0,12.71-1.68,18.39-4.96,8.54-4.93,14.64-12.89,17.19-22.41,1.09-4.08,1.48-8.24,1.15-12.4,4.07-3.46,7.41-7.39,9.96-11.65l17.45-3.65,.2-.05c7.82-2.02,13.27-9.07,13.27-17.15s-5.46-15.13-13.27-17.15ZM57.96,120.39l15.56-8.98,13.28,7.67v13.71c-11.46-.95-21.64-5.56-28.84-12.39Zm28.84-61.04v13.71l-13.28,7.67-15.56-8.98c7.21-6.84,17.39-11.44,28.84-12.4Zm22.14,21.38l-13.28-7.67v-13.71c11.46,.95,21.64,5.56,28.84,12.4l-15.56,8.98Zm-17.71,30.68l-13.28-7.67v-15.34l13.28-7.67,13.28,7.67v15.34l-13.28,7.67Zm-39.03-32.76l16.89,9.75v15.34l-16.89,9.75c-3.35-5.19-5.25-11.12-5.25-17.42s1.9-12.23,5.25-17.42Zm43.46,40.43l13.28-7.67,15.56,8.98c-7.21,6.84-17.39,11.44-28.84,12.39v-13.71Zm17.71-15.34v-15.34l16.89-9.75c3.35,5.19,5.25,11.12,5.25,17.42s-1.9,12.23-5.25,17.42l-16.89-9.75Zm-7.57-67.37c6.49,3.75,11.13,9.79,13.07,17.03,.35,1.32,.61,2.65,.77,3.98-7.76-4.24-16.68-6.66-26.03-7.02l-4.72-17.61c5.85-.62,11.72,.62,16.91,3.61Zm-52.05,8.8c5.63,1.51,10.35,5.11,13.3,10.13-4.78,2.1-9.21,4.84-13.13,8.17-.56,.48-1.11,.96-1.64,1.46l-11.2-19.39c4.06-1.36,8.44-1.5,12.67-.37Zm0,101.81c-4.23,1.13-8.61,.99-12.67-.37l11.2-19.39c.53,.49,1.08,.98,1.64,1.46,3.92,3.33,8.35,6.07,13.13,8.17-2.95,5.03-7.66,8.62-13.3,10.13Zm52.05,8.8c-5.19,3-11.06,4.23-16.91,3.61l4.72-17.61c9.35-.35,18.27-2.78,26.03-7.02-.16,1.33-.41,2.66-.77,3.98-1.94,7.24-6.58,13.28-13.07,17.03Zm48.26-51.09l-11.22,2.35c1-3.54,1.52-7.22,1.52-10.96s-.51-7.33-1.49-10.83l11.18,2.34c3.86,1.04,6.54,4.54,6.54,8.55,0,4.01-2.69,7.51-6.54,8.55Z" style="fill:#fff;"/></svg>